<?xml version="1.0" encoding="utf-8"?>
<!-- Generator: Adobe Illustrator 24.3.0, SVG Export Plug-In . SVG Version: 6.00 Build 0)  -->
<svg version="1.1" id="Layer_1" xmlns="http://www.w3.org/2000/svg" xmlns:xlink="http://www.w3.org/1999/xlink" x="0px" y="0px"
	 viewBox="0 0 30.9 21.9" style="enable-background:new 0 0 30.9 21.9;" xml:space="preserve">
<style type="text/css">
	.st0{fill:#FFFFFF;stroke:#F1607C;stroke-width:1.5;stroke-miterlimit:10;}
</style>
<image style="display:none;overflow:visible;" width="512" height="512" xlink:href="email-icon.png"  transform="matrix(5.859375e-02 0 0 5.859375e-02 0.4421 -4)">
</image>
<rect x="0.5" y="0.5" class="st0" width="29.9" height="20.8"/>
<path class="st0" d="M30.1,0.9L18.8,9.4L16,11.6c-0.4,0.3-0.8,0.3-1.2,0L12,9.5L0.8,0.8c-0.1-0.1,0-0.2,0.1-0.2l29.2,0.1
	C30.2,0.7,30.2,0.8,30.1,0.9z"/>
<path class="st0" d="M30.1,21.4H0.8c-0.1,0-0.2-0.1-0.1-0.2L12,9.5l2.7,2c0.4,0.3,0.9,0.3,1.3,0l2.8-2.1l11.4,11.8
	C30.3,21.2,30.3,21.4,30.1,21.4z"/>
</svg>
