<?xml version="1.0" encoding="utf-8"?>
<!-- Generator: Adobe Illustrator 24.3.0, SVG Export Plug-In . SVG Version: 6.00 Build 0)  -->
<svg version="1.1" id="Layer_1" xmlns="http://www.w3.org/2000/svg" xmlns:xlink="http://www.w3.org/1999/xlink" x="0px" y="0px"
	 viewBox="0 0 96 96" style="enable-background:new 0 0 96 96;" xml:space="preserve">
<style type="text/css">
	.st0{fill:none;stroke:#010101;stroke-width:2;stroke-miterlimit:10;}
</style>
<path class="st0" d="M41.73,9.27H20.49c-4.3,0-7.82,3.52-7.82,7.82v61.83c0,4.3,3.52,7.82,7.82,7.82h21.24
	c4.3,0,7.82-3.52,7.82-7.82V17.08C49.54,12.78,46.03,9.27,41.73,9.27z"/>
<path class="st0" d="M42.6,86.73H19.65c-3.82,0-6.94-3.12-6.94-6.94v0c0-3.82,3.12-6.94,6.94-6.94H42.6c3.82,0,6.94,3.12,6.94,6.94
	v0C49.54,83.61,46.42,86.73,42.6,86.73z"/>
<path class="st0" d="M49.54,22.34H76.9c3.53,0,6.43,2.89,6.43,6.43v51.54c0,3.54-2.89,6.43-6.43,6.43H42.6H19.62H19.1
	c-3.53,0-6.43-2.89-6.43-6.43v-0.52V28.77"/>
<path class="st0" d="M41.75,83.45H20.32c-1.82,0-3.32-1.49-3.32-3.32v0c0-1.82,1.49-3.32,3.32-3.32h21.44
	c1.82,0,3.32,1.49,3.32,3.32v0C45.07,81.96,43.58,83.45,41.75,83.45z"/>
</svg>
