<?xml version="1.0" encoding="utf-8"?>
<!-- Generator: Adobe Illustrator 24.3.0, SVG Export Plug-In . SVG Version: 6.00 Build 0)  -->
<svg version="1.1" id="Layer_1" xmlns="http://www.w3.org/2000/svg" xmlns:xlink="http://www.w3.org/1999/xlink" x="0px" y="0px"
	 viewBox="0 0 14.6 16" style="enable-background:new 0 0 14.6 16;" xml:space="preserve">
<style type="text/css">
	.st0{display:none;fill:#010101;stroke:#FFFFFF;stroke-width:2;stroke-miterlimit:10;}
	.st1{fill:#F1607C;stroke:#010101;stroke-width:0.5;stroke-miterlimit:10;}
</style>
<rect x="-40.7" y="-40" class="st0" width="96" height="96"/>
<path class="st1" d="M7.6,2.9h5.5c0.7,0,1.3,0.6,1.3,1.3v10.3c0,0.7-0.6,1.3-1.3,1.3H6.2H1.6H1.5c-0.7,0-1.3-0.6-1.3-1.3v-0.1V4.1"
	/>
<path class="st1" d="M6,0.3H1.8C0.9,0.3,0.2,1,0.2,1.8v12.4c0,0.9,0.7,1.6,1.6,1.6H6c0.9,0,1.6-0.7,1.6-1.6V1.8C7.6,1,6.9,0.3,6,0.3
	z"/>
<path class="st1" d="M6.2,15.7H1.6c-0.8,0-1.4-0.6-1.4-1.4l0,0c0-0.8,0.6-1.4,1.4-1.4h4.6c0.8,0,1.4,0.6,1.4,1.4l0,0
	C7.6,15.1,7,15.7,6.2,15.7z"/>
<path class="st1" d="M6,15.1H1.7c-0.4,0-0.7-0.3-0.7-0.7l0,0c0-0.4,0.3-0.7,0.7-0.7H6c0.4,0,0.7,0.3,0.7,0.7l0,0
	C6.7,14.8,6.4,15.1,6,15.1z"/>
</svg>
