<?xml version="1.0" encoding="utf-8"?>
<!-- Generator: Adobe Illustrator 24.3.0, SVG Export Plug-In . SVG Version: 6.00 Build 0)  -->
<svg version="1.1" id="Layer_1" xmlns="http://www.w3.org/2000/svg" xmlns:xlink="http://www.w3.org/1999/xlink" x="0px" y="0px"
	 viewBox="0 0 30 30" style="enable-background:new 0 0 30 30;" xml:space="preserve">
<style type="text/css">
	.st0{fill:#FFFFFF;stroke:#F1617C;stroke-width:1.5;stroke-miterlimit:10;}
</style>
<image style="display:none;overflow:visible;" width="512" height="512" xlink:href="phone-icon.png"  transform="matrix(5.859375e-02 0 0 5.859375e-02 0 0)">
</image>
<path class="st0" d="M3.9,2.8h4.9c0.4,0,0.7,0.2,0.9,0.5L12,7.8c0.1,0.3,0.2,0.6,0,0.9L10,13c-0.2,0.4-0.1,0.9,0.2,1.2l5.9,5.4
	c0.3,0.3,0.7,0.3,1.1,0.2L21,18c0.3-0.1,0.6-0.1,0.9,0l4.7,2.4c0.3,0.2,0.5,0.5,0.5,0.9v4.8c0,0.6-0.5,1-1.1,1
	c-3-0.2-11.6-1.2-17.3-8.4c-5.5-6.8-6-12.7-5.9-15C2.9,3.3,3.3,2.8,3.9,2.8z"/>
</svg>
