<?xml version="1.0" encoding="utf-8"?>
<!-- Generator: Adobe Illustrator 24.3.0, SVG Export Plug-In . SVG Version: 6.00 Build 0)  -->
<svg version="1.1" id="Layer_1" xmlns="http://www.w3.org/2000/svg" xmlns:xlink="http://www.w3.org/1999/xlink" x="0px" y="0px"
	 viewBox="0 0 96 96" style="enable-background:new 0 0 96 96;" xml:space="preserve">
<style type="text/css">
	.st0{display:none;fill:#010101;stroke:#FFFFFF;stroke-width:2;stroke-miterlimit:10;}
	.st1{fill:#FFFFFF;stroke:#010101;stroke-width:2;stroke-miterlimit:10;}
	.st2{fill:#F9F9F9;stroke:#010101;stroke-width:2;stroke-miterlimit:10;}
</style>
<rect class="st0" width="96" height="96"/>
<path class="st1" d="M49.5,22.3h27.4c3.5,0,6.4,2.9,6.4,6.4v51.5c0,3.5-2.9,6.4-6.4,6.4H42.6h-23h-0.5c-3.5,0-6.4-2.9-6.4-6.4v-0.5
	v-51"/>
<path class="st1" d="M41.7,9.3H20.5c-4.3,0-7.8,3.5-7.8,7.8v61.8c0,4.3,3.5,7.8,7.8,7.8h21.2c4.3,0,7.8-3.5,7.8-7.8V17.1
	C49.5,12.8,46,9.3,41.7,9.3z"/>
<path class="st1" d="M42.6,86.7H19.6c-3.8,0-6.9-3.1-6.9-6.9l0,0c0-3.8,3.1-6.9,6.9-6.9h22.9c3.8,0,6.9,3.1,6.9,6.9l0,0
	C49.5,83.6,46.4,86.7,42.6,86.7z"/>
<path class="st2" d="M41.8,83.4H20.3c-1.8,0-3.3-1.5-3.3-3.3l0,0c0-1.8,1.5-3.3,3.3-3.3h21.4c1.8,0,3.3,1.5,3.3,3.3l0,0
	C45.1,82,43.6,83.4,41.8,83.4z"/>
</svg>
